<?xml version="1.0" encoding="UTF-8" standalone="no"?>
<!-- Created with Inkscape (http://www.inkscape.org/) -->

<svg
   xmlns:dc="http://purl.org/dc/elements/1.1/"
   xmlns:cc="http://creativecommons.org/ns#"
   xmlns:rdf="http://www.w3.org/1999/02/22-rdf-syntax-ns#"
   xmlns:svg="http://www.w3.org/2000/svg"
   xmlns="http://www.w3.org/2000/svg"
   xmlns:sodipodi="http://sodipodi.sourceforge.net/DTD/sodipodi-0.dtd"
   xmlns:inkscape="http://www.inkscape.org/namespaces/inkscape"
   version="1.1"
   width="15"
   height="15"
   viewBox="0 0 15.001 14.999"
   id="Layer_1"
   xml:space="preserve"
   style="overflow:visible"
   inkscape:version="0.91 r13725"
   sodipodi:docname="Wechselkurs.svg"><metadata
     id="metadata10"><rdf:RDF><cc:Work
         rdf:about=""><dc:format>image/svg+xml</dc:format><dc:type
           rdf:resource="http://purl.org/dc/dcmitype/StillImage" /><dc:title></dc:title></cc:Work></rdf:RDF></metadata><sodipodi:namedview
     pagecolor="#ffffff"
     bordercolor="#666666"
     borderopacity="1"
     objecttolerance="10"
     gridtolerance="10"
     guidetolerance="10"
     inkscape:pageopacity="0"
     inkscape:pageshadow="2"
     inkscape:window-width="1918"
     inkscape:window-height="1001"
     id="namedview8"
     showgrid="false"
     inkscape:zoom="22.250293"
     inkscape:cx="4.485448"
     inkscape:cy="9.0677138"
     inkscape:window-x="0"
     inkscape:window-y="78"
     inkscape:window-maximized="0"
     inkscape:current-layer="Layer_1" /><defs
     id="defs10" /><path
     inkscape:connector-curvature="0"
     style="fill:#000000;fill-opacity:1;fill-rule:evenodd;stroke:none"
     id="path4955"
     d="m 13.289548,11.246023 0.955757,0.520308 -3.262692,1.353304 -0.631014,-3.4753996 0.95551,0.5207596 C 12.310253,8.3243876 11.899993,6.0876151 10.448928,4.7061052 L 12.0074,3.0591585 c 2.17857,2.070442 2.788078,5.4237233 1.282148,8.1868645 z"
     inkscape:export-xdpi="306.33688"
     inkscape:export-ydpi="306.33688" /><path
     inkscape:connector-curvature="0"
     style="fill:#e41c1c;fill-opacity:1;fill-rule:evenodd;stroke:none"
     id="path31"
     d="M 7.1510877,1.1915833 7.1238106,0.1037193 9.9271533,2.252641 7.2328745,4.5368164 7.2061102,3.4489396 C 5.1105255,3.5004957 3.3785537,4.9741781 2.9076637,6.921592 L 0.70212984,6.3953889 C 1.4058991,3.4734708 4.0051715,1.2689796 7.1510877,1.1915833 Z"
     inkscape:export-xdpi="306.33688"
     inkscape:export-ydpi="306.33688" /><path
     inkscape:connector-curvature="0"
     style="fill:#000000;fill-opacity:1;fill-rule:evenodd;stroke:none"
     id="path33"
     d="M 1.5129167,11.534866 0.58443753,12.10242 1.0437871,8.6001935 4.3690798,9.79142 3.4403334,10.358536 c 1.0924413,1.789051 3.2346733,2.552141 5.1566281,1.986238 l 0.647062,2.173149 C 6.3616836,15.369401 3.152902,14.220611 1.5129167,11.534866 Z"
     inkscape:export-xdpi="306.33688"
     inkscape:export-ydpi="306.33688" /></svg>